<?xml version="1.0" encoding="UTF-8"?>
<!DOCTYPE svg PUBLIC "-//W3C//DTD SVG 1.1//EN" "http://www.w3.org/Graphics/SVG/1.1/DTD/svg11.dtd">
<!-- Creator: CorelDRAW 2021.5 -->
<svg xmlns="http://www.w3.org/2000/svg" xml:space="preserve" width="79mm" height="20mm" version="1.1" style="shape-rendering:geometricPrecision; text-rendering:geometricPrecision; image-rendering:optimizeQuality; fill-rule:evenodd; clip-rule:evenodd"
viewBox="0 0 7900 2000"
 xmlns:xlink="http://www.w3.org/1999/xlink"
 xmlns:xodm="http://www.corel.com/coreldraw/odm/2003">
 <defs>
  <style type="text/css">
   <![CDATA[
    .fil0 {fill:#00C996}
    .fil2 {fill:#FEFEFE;fill-rule:nonzero}
    .fil1 {fill:#00C996;fill-rule:nonzero}
   ]]>
  </style>
 </defs>
 <g id="Слой_x0020_1">
  <metadata id="CorelCorpID_0Corel-Layer"/>
  <g id="_3027966228480">
   <g id="_1943673348096">
    <path class="fil0" d="M83.49 890.13l607.27 -614.48c63.84,-64.55 168.24,-64.55 232.04,0l607.27 614.48c63.81,64.56 63.81,170.21 -0.02,234.78l-607.27 614.48c-63.81,64.59 -168.24,64.59 -232.07,0l-607.27 -614.46c-63.81,-64.56 -63.81,-170.23 0,-234.8l0.03 0 0.02 0zm60.51 60.59l606.69 -613.89c30.86,-31.22 81.41,-31.22 112.26,0l606.7 613.89c30.85,31.22 30.85,82.36 -0.03,113.62l-606.69 613.84c-30.86,31.22 -81.38,31.22 -112.26,0l-606.69 -613.84c-30.87,-31.24 -30.87,-82.39 0,-113.62l0.03 0 -0.01 0z"/>
    <path class="fil1" d="M2338.61 704.91c0,-6.94 1.11,-13.2 3.27,-18.66 2.22,-5.65 5.6,-10.45 10.09,-14.34 4.32,-3.8 9.12,-6.64 14.44,-8.51 5.29,-1.88 10.95,-2.82 17.05,-2.82 5.75,0 11.23,0.97 16.36,2.83 5.13,1.91 9.82,4.77 14.11,8.49 8.9,7.76 13.36,18.44 13.36,31.99l0 340.28c0,32.04 -3.65,61.83 -10.91,89.37 -7.26,27.6 -18.22,52.94 -32.79,75.97 -14.52,22.91 -31.27,43 -50.2,60.27 -18.96,17.25 -40.16,31.67 -63.53,43.25 -23.32,11.53 -47.35,20.18 -72.08,25.94 -24.78,5.74 -50.28,8.67 -76.44,8.67 -26.19,0 -51.69,-2.89 -76.47,-8.67 -24.68,-5.73 -48.76,-14.39 -72.05,-25.94 -23.42,-11.61 -44.6,-26 -63.53,-43.22 -18.96,-17.25 -35.7,-37.34 -50.2,-60.27 -14.56,-23 -25.53,-48.31 -32.79,-75.95 -7.26,-27.55 -10.89,-57.34 -10.89,-89.37l0 -343.36c0,-6.35 1.11,-12.05 3.33,-17.08 2.27,-5.16 5.73,-9.53 10.26,-13.11 4.3,-3.35 8.99,-5.92 14.08,-7.54 5.04,-1.69 10.42,-2.55 16.14,-2.55 6.04,0 11.69,0.89 16.96,2.66 5.35,1.78 10.17,4.5 14.41,8.02 4.52,3.75 7.93,8.23 10.15,13.38 2.22,5.08 3.33,10.87 3.33,17.21l0 342.36c0,23.12 2.54,44.52 7.67,64.2 5.08,19.57 12.72,37.51 22.86,53.75 10.2,16.27 21.98,30.58 35.37,42.88 13.39,12.28 28.36,22.58 44.93,30.88 16.66,8.31 33.87,14.61 51.59,18.78 17.69,4.17 35.98,6.24 54.85,6.24 37.64,0 73.13,-8.34 106.46,-25.05 16.56,-8.29 31.57,-18.59 44.93,-30.88 13.41,-12.29 25.2,-26.63 35.34,-42.88 10.17,-16.27 17.8,-34.15 22.88,-53.75 5.08,-19.68 7.65,-41.05 7.65,-64.2l0 -339.29 0.02 0.03 -0.01 -0.01z"/>
    <path class="fil1" d="M2855.74 668.82c44.26,0 85.08,9.01 122.5,27.1 37.42,18.07 65.5,43.91 84.21,77.46l0 -256.96c0,-13.77 4.69,-24.73 14.05,-32.92 9.35,-8.2 20.41,-12.28 33.18,-12.28 12.75,0 23.62,4.1 32.53,12.28 8.93,8.19 13.41,19.12 13.41,32.92l0 772.13c0,13.8 -4.24,24.75 -12.73,32.92 -8.51,8.18 -19.99,12.28 -34.45,12.28 -28.94,0 -43.39,-15.08 -43.39,-45.19l0 -52.95c-20.41,37.89 -49.76,65.86 -88.01,83.93 -38.29,18.1 -78.7,27.13 -121.27,27.13 -60.38,0 -115.27,-13.55 -164.63,-40.65 -49.32,-27.14 -88.68,-66.53 -118.01,-118.17 -29.35,-51.66 -44.05,-113.64 -44.05,-185.93 0,-49.07 10.86,-99.23 32.56,-150.44 21.7,-51.22 56.99,-94.49 105.92,-129.76 48.92,-35.29 111.64,-52.94 188.21,-52.94l0.05 0.05 -0.08 -0.01zm7.63 588.78c57.01,-3.46 104.45,-22.81 142.27,-58.1 37.87,-35.32 56.8,-82.19 56.8,-140.76l0 -101.99c0,-55.96 -19.13,-102.42 -57.44,-139.45 -38.25,-37.03 -86.76,-56.8 -145.45,-59.41 -58.71,0 -105.69,13.14 -141.01,39.39 -35.32,26.26 -60.17,57.88 -74.64,94.91 -14.49,37 -21.73,72.29 -21.73,105.86 0,61.95 12.76,112.33 38.26,151.07 25.55,38.72 56.79,66.49 93.82,83.27 37,16.79 73.35,25.17 109.1,25.17l0.03 0.03 -0.01 0.01z"/>
    <path class="fil1" d="M3245.58 727.08c-1.77,-3.55 -2.64,-8.87 -2.64,-15.88 0,-13.23 5.27,-24.23 15.7,-33.07 10.44,-8.81 22.64,-13.23 36.61,-13.23 8.71,0 16.76,2.2 24.19,6.62 7.4,4.41 12.86,11.03 16.34,19.87l249.77 504.15 252.35 -505.45c3.5,-7.95 8.93,-14.12 16.36,-18.54 7.41,-4.42 15.5,-6.62 24.22,-6.62 12.22,0 23.32,3.75 33.35,11.23 10.04,7.5 15.05,17.45 15.05,29.79 0,4.4 -1.3,10.12 -3.94,17.18l-295.52 594.11c-4.35,9.7 -10.71,17.19 -18.96,22.49 -8.29,5.3 -16.8,7.95 -25.5,7.95 -16.55,0 -30.53,-9.68 -41.83,-29.1l-295.52 -591.45 -0.03 -0.03 0 -0.02z"/>
    <path class="fil1" d="M802.78 1152.85c10.73,10.86 16.09,22.17 16.09,33.96 0,12.69 -4.91,23.78 -14.75,33.27 -9.84,9.53 -21.06,14.29 -33.59,14.29 -11.62,0 -23.28,-4.98 -34.9,-14.96l-231.01 -226.93c-14.31,-11.78 -21.48,-24.46 -21.48,-38.04 0,-15.43 7.6,-29.88 22.81,-43.49l232.31 -225.55c10.74,-11.78 23.28,-17.68 37.59,-17.68 11.62,0 21.95,4.32 30.88,12.92 8.96,8.64 13.45,18.81 13.45,30.55 0,10.86 -5.38,22.64 -16.11,35.32l-216.22 206.54 214.86 199.75 0.05 0.02 0.02 0.03z"/>
    <path class="fil1" d="M810.84 1265.75c-10.73,10.89 -16.11,22.2 -16.11,33.93 0,12.72 4.91,23.79 14.76,33.27 9.84,9.53 21.03,14.3 33.56,14.3 11.63,0 23.28,-4.99 34.93,-14.99l230.98 -226.88c14.31,-11.81 21.51,-24.46 21.51,-38.04 0,-15.4 -7.6,-29.88 -22.86,-43.49l-232.32 -225.58c-10.73,-11.77 -23.28,-17.67 -37.59,-17.67 -11.62,0 -21.95,4.32 -30.85,12.91 -8.98,8.59 -13.45,18.79 -13.45,30.55 0,10.86 5.38,22.65 16.11,35.32l216.22 206.54 -214.86 199.75 0.03 0.03 -0.06 0.05z"/>
   </g>
   <path class="fil2" d="M5001.98 1287.81c0,59.83 -13.67,110.88 -41,153.18 -27.35,42.31 -64.74,74.13 -112.15,95.5 -47.42,21.35 -100.62,32.04 -159.58,32.04 -51.26,0 -96.33,-6.42 -135.24,-19.23 -38.87,-12.81 -74.98,-34.6 -108.3,-65.39 -5.97,-5.97 -8.96,-11.97 -8.96,-17.94 0,-5.97 2.13,-10.69 6.43,-14.09 4.26,-3.41 9.4,-5.1 15.38,-5.1 6.84,0 12.39,1.69 16.66,5.1 36.75,28.22 70.71,47.44 101.92,57.69 31.2,10.26 68.57,15.38 112.15,15.38 48.7,0 93.35,-8.76 133.96,-26.26 40.61,-17.52 73.06,-44.24 97.43,-80.11 24.36,-35.9 36.53,-79.48 36.53,-130.75l0 -119.2c-20.51,48.73 -53.19,86.3 -98.07,112.8 -44.87,26.48 -94.63,39.74 -149.32,39.74 -58.11,0 -112.38,-12.8 -162.79,-38.45 -50.43,-25.64 -91.01,-63.45 -121.79,-113.45 -30.77,-49.98 -46.13,-109.59 -46.13,-178.79 0,-74.34 17.52,-139.93 52.55,-196.75 35.03,-56.85 85.45,-98.9 151.26,-126.28 38.45,-16.24 79.03,-24.37 121.76,-24.37 55.55,0 108.53,14.97 158.94,44.88 45.29,29.91 76.5,67.93 93.58,114.09l0 -126.9c0,-15.41 7.26,-23.08 21.79,-23.08 6.84,0 12.39,2.14 16.66,6.42 4.27,4.3 6.42,9.82 6.42,16.66l0 612.68 -0.09 -0.02zm-178.16 -570.39c-42.72,-20.52 -85.89,-30.33 -129.45,-29.47 -60.67,4.29 -113.23,23.5 -157.67,57.68 -38.45,29.91 -66.86,65.81 -85.23,107.66 -18.37,41.86 -27.58,86.74 -27.58,134.6 0,53.84 11.11,102.56 33.32,146.13 22.21,43.6 54.89,78.2 98.07,103.81 43.15,25.65 94.63,38.46 154.46,38.46 46.99,0 89.3,-10.7 126.89,-32.07 37.59,-21.35 67.06,-49.98 88.45,-85.87 21.35,-35.9 32.04,-75.21 32.04,-117.94l0 -111.52c0,-46.99 -11.56,-88.89 -34.6,-125.62 -23.09,-36.75 -55.99,-65.38 -98.68,-85.89l-0.02 0.04z"/>
   <path id="_1" class="fil2" d="M5255.77 819.95c13.67,-48.7 42.31,-88.21 85.9,-118.58 43.6,-30.33 92.28,-45.49 146.13,-45.49 15.38,0 23.08,7.26 23.08,21.79 0,14.53 -7.7,21.79 -23.08,21.79 -76.92,0 -134.82,28 -173.69,83.94 -38.87,55.99 -58.32,126.26 -58.32,210.87l0 289.67c0,6.84 -2.13,12.39 -6.4,16.66 -4.3,4.27 -9.4,6.42 -15.41,6.42 -6.84,0 -12.39,-2.14 -16.66,-6.42 -4.27,-4.27 -6.42,-9.82 -6.42,-16.66l0 -606.28c0,-5.97 2.14,-11.11 6.42,-15.38 4.27,-4.27 9.82,-6.43 16.66,-6.43 5.99,0 11.11,2.15 15.41,6.43 4.27,4.27 6.4,9.4 6.4,15.38l0 142.27 -0.02 0.02z"/>
   <path id="_2" class="fil2" d="M5905.63 1321.13c-51.26,0 -98.68,-9.81 -142.27,-29.46 -43.6,-19.68 -81.19,-47.87 -112.8,-84.61 -51.26,-63.23 -76.91,-138.01 -76.91,-224.31 0,-48.73 9.4,-95.69 28.21,-140.98 18.82,-45.3 45.93,-84.39 81.41,-117.29 35.47,-32.9 77.14,-56.18 124.96,-69.85 29.05,-7.71 61.54,-11.56 97.43,-11.56 31.62,0 63.65,3.85 96.13,11.56 67.51,18.81 122.21,56.4 164.07,112.79 41.86,56.41 65.81,120.06 71.77,190.99 5.14,97.43 -20.51,180.31 -76.91,248.65 -31.62,36.75 -69.24,64.94 -112.8,84.61 -43.57,19.65 -91,29.46 -142.27,29.46l-0.02 0zm82.05 -622.93c-27.35,-6.85 -55.11,-10.27 -83.3,-10.27 -26.48,0 -53.39,3.44 -80.77,10.27 -62.37,17.07 -111.93,52.97 -148.68,107.66 -36.76,54.69 -55.12,115.37 -55.12,182.01 0,35.03 5.55,69.01 16.66,101.92 11.12,32.87 27.78,62.59 49.98,89.08 26.48,31.62 58.97,55.96 97.43,73.07 38.45,17.07 79.03,25.64 121.77,25.64 43.59,0 84.81,-8.54 123.68,-25.64 38.87,-17.08 71.55,-41.45 98.07,-73.07 22.21,-26.48 38.87,-55.99 49.98,-88.44 11.11,-32.49 16.66,-66.23 16.66,-101.28 0,-66.64 -18.59,-127.54 -55.77,-182.65 -37.17,-55.11 -87.37,-91.2 -150.62,-108.3l0.03 0z"/>
   <path id="_3" class="fil2" d="M6447.84 1040.42c0,44.43 11.34,84.82 33.96,121.11 22.66,36.34 52.58,64.75 89.75,85.26 37.18,20.49 77.12,30.76 119.84,30.76 44.43,0 88.86,-12.19 133.3,-36.53 44.43,-24.36 81.19,-59.16 110.24,-104.45 29.05,-45.29 43.6,-97.85 43.6,-157.65l0 -299.94c0,-15.38 7.25,-23.09 21.76,-23.09 6.84,0 12.39,2.14 16.66,6.43 4.27,4.27 6.42,9.82 6.42,16.66l0 607.57c0,5.96 -2.14,11.11 -6.42,15.38 -4.29,4.27 -9.82,6.42 -16.66,6.42 -14.52,0 -21.76,-7.7 -21.76,-23.08l0 -179.45c-12.81,46.99 -34.6,86.73 -65.39,119.19 -30.76,32.49 -65.39,56.63 -103.81,72.43 -38.46,15.8 -76.06,23.72 -112.8,23.72 -50.4,0 -98.07,-10.91 -142.92,-32.71 -44.87,-21.79 -81.18,-54.02 -108.94,-96.77 -27.77,-42.72 -41.64,-93.16 -41.64,-151.26l0 -361.48c0,-15.38 7.26,-23.09 21.8,-23.09 6.84,0 12.39,2.15 16.66,6.43 4.26,4.27 6.42,9.82 6.42,16.66l0 361.48 -0.07 0z"/>
   <path id="_4" class="fil2" d="M7661.72 1298.06c-35.89,15.38 -81.19,23.09 -135.85,23.09 -54.7,0 -104.46,-13.25 -149.33,-39.75 -44.88,-26.47 -77.56,-64.08 -98.07,-112.79l0 370.44c0,15.38 -7.26,23.08 -21.79,23.08 -6.84,0 -12.39,-2.13 -16.66,-6.42 -4.27,-4.27 -6.42,-9.82 -6.42,-16.66l0 -860.07c0,-6.84 2.14,-12.39 6.42,-16.66 4.27,-4.27 9.82,-6.43 16.66,-6.43 14.53,0 21.79,7.71 21.79,23.09l0 123.07c17.08,-46.16 48.29,-84.16 93.58,-114.09 50.4,-29.89 103.39,-44.88 158.93,-44.88 57.27,0 110.88,14.31 160.86,42.95 49.98,28.63 89.95,69.43 119.83,122.43 29.92,52.97 44.88,114.09 44.88,183.3 0,68.38 -17.08,130.55 -51.26,186.5 -34.18,55.98 -82.05,95.91 -143.56,119.86l-0.01 -0.06zm-383.25 -257.64c0,43.6 10.7,82.88 32.07,117.94 21.35,35.03 50.84,63.01 88.44,83.94 37.59,20.93 79.9,32.26 126.9,33.96 59.81,0.84 111.29,-11.56 154.45,-37.17 43.16,-25.65 75.84,-60.26 98.06,-103.81 22.21,-43.6 33.32,-92.29 33.32,-146.13 0,-66.64 -14.96,-122.63 -44.87,-167.92 -29.91,-45.3 -66.42,-78.81 -109.6,-100.62 -43.15,-21.79 -84.38,-32.7 -123.68,-32.7 -44.46,0 -86.1,9.4 -124.97,28.21 -38.87,18.82 -70.27,46.35 -94.21,82.66 -23.92,36.34 -35.89,79.67 -35.89,130.11l0 111.52 -0.02 0.01z"/>
   <g>
    <path class="fil2" d="M4120.56 473.17c0.11,-10.76 8.84,-19.4 19.52,-19.3 10.7,0.1 19.27,8.89 19.21,19.65l-38.73 -0.34 0 -0.01zm-9.16 1084.55l9.15 -1084.57 38.72 0.34 -9.15 1084.57 -38.72 -0.34zm38.72 0.35c-0.1,10.76 -8.84,19.4 -19.52,19.3 -10.69,-0.11 -19.27,-8.89 -19.2,-19.65l38.72 0.34 0 0.01z"/>
   </g>
  </g>
 </g>
</svg>
