<svg width="30" height="31" viewBox="0 0 30 31" fill="none" xmlns="http://www.w3.org/2000/svg">
<path fill-rule="evenodd" clip-rule="evenodd" d="M14.6464 8.12832C15.1183 8.63275 15.1183 9.45059 14.6464 9.95501L9.45917 15.5L14.6464 21.045C15.1183 21.5494 15.1183 22.3673 14.6464 22.8717C14.1745 23.3761 13.4095 23.3761 12.9376 22.8717L6.8959 16.4133C6.42402 15.9089 6.42402 15.0911 6.8959 14.5867L12.9376 8.12832C13.4095 7.62389 14.1745 7.62389 14.6464 8.12832Z" fill="white"/>
<path fill-rule="evenodd" clip-rule="evenodd" d="M23.1044 8.12832C23.5763 8.63275 23.5763 9.45059 23.1044 9.95501L17.9172 15.5L23.1044 21.045C23.5763 21.5494 23.5763 22.3673 23.1044 22.8717C22.6325 23.3761 21.8675 23.3761 21.3956 22.8717L15.3539 16.4133C14.882 15.9089 14.882 15.0911 15.3539 14.5867L21.3956 8.12832C21.8675 7.62389 22.6325 7.62389 23.1044 8.12832Z" fill="white"/>
</svg>
